<svg width="24" height="24" viewBox="0 0 24 24" fill="none" xmlns="http://www.w3.org/2000/svg">
<path d="M19.6501 18.0913L18.2534 9.74716C18.1896 9.36632 17.9927 9.02047 17.6979 8.77112C17.403 8.52178 17.0293 8.3851 16.6431 8.38541H14.5445C14.7986 7.94289 14.932 7.44139 14.9313 6.93111C14.9313 5.31496 13.6167 4 12.0002 4C10.3841 4 9.06909 5.31496 9.06909 6.93111C9.06909 7.46001 9.20981 7.95668 9.45588 8.38541H7.35728C6.97105 8.3852 6.59726 8.522 6.30241 8.77147C6.00756 9.02095 5.81076 9.36692 5.74702 9.74786L4.35061 18.0931C4.31138 18.3273 4.3236 18.5673 4.38642 18.7963C4.44924 19.0254 4.56116 19.238 4.71441 19.4194C4.86766 19.6009 5.05856 19.7468 5.27387 19.847C5.48917 19.9473 5.72371 19.9995 5.96121 20H18.0406C18.2782 19.9994 18.5128 19.947 18.7281 19.8466C18.9434 19.7462 19.1343 19.6001 19.2874 19.4185C19.4406 19.2368 19.5524 19.024 19.615 18.7949C19.6777 18.5657 19.6896 18.3256 19.6501 18.0913ZM12.0006 5.70765C12.325 5.70811 12.6359 5.8372 12.8653 6.06662C13.0946 6.29604 13.2236 6.60706 13.224 6.93146C13.2236 7.25583 13.0946 7.56681 12.8653 7.79618C12.6359 8.02554 12.3249 8.15456 12.0006 8.15493C11.3257 8.15493 10.7767 7.60593 10.7767 6.93111C10.7767 6.2563 11.3257 5.70765 12.0006 5.70765Z" fill="#797979"/>
</svg>
