<svg width="24" height="24" viewBox="0 0 24 24" fill="none" xmlns="http://www.w3.org/2000/svg">
<path d="M12.0007 3.96094C7.57498 3.96094 3.97461 7.56131 3.97461 11.987C4.37792 22.6202 19.6255 22.6176 20.0268 11.987C20.0268 7.56131 16.4264 3.96094 12.0007 3.96094ZM12.6695 15.3312V16.0001C12.6662 16.8749 11.3352 16.8742 11.3319 16.0001V15.3312H11.1526C10.439 15.3312 9.77279 14.9473 9.41496 14.3286C9.22969 14.0083 9.33938 13.5996 9.65842 13.415C9.97879 13.2284 10.3881 13.3394 10.5721 13.6585C10.6918 13.8658 10.9138 13.9935 11.1519 13.9935H12.6689C13.3357 14.037 13.634 12.9568 12.907 12.8164L10.873 12.4773C8.53075 12.0432 9.03506 8.62944 11.3312 8.64282V7.97398C11.3352 7.09914 12.6655 7.09981 12.6689 7.97398V8.64282H12.8481C13.5618 8.64282 14.2279 9.0274 14.5858 9.64608C14.771 9.96579 14.6613 10.3744 14.3423 10.5597C14.0213 10.745 13.6126 10.6353 13.4287 10.3156C13.3089 10.1089 13.0869 9.98117 12.8488 9.98117H11.3319C10.665 9.9377 10.3674 11.0179 11.0937 11.1583L13.1277 11.4974C15.47 11.9315 14.9657 15.3446 12.6695 15.3312Z" fill="#797979"/>
</svg>
